<svg xmlns="http://www.w3.org/2000/svg" viewBox="0 0 32 32" fill="none">
  <rect width="32" height="32" rx="6" fill="#7c3aed"/>
  <circle cx="7" cy="10" r="2.5" fill="white" fill-opacity="0.9"/>
  <circle cx="7" cy="16" r="2.5" fill="white" fill-opacity="0.9"/>
  <circle cx="7" cy="22" r="2.5" fill="white" fill-opacity="0.9"/>
  <circle cx="16" cy="8" r="2.5" fill="white"/>
  <circle cx="16" cy="16" r="2.5" fill="white"/>
  <circle cx="16" cy="24" r="2.5" fill="white"/>
  <circle cx="25" cy="16" r="2.5" fill="white" fill-opacity="0.9"/>
  <line x1="9.5" y1="10" x2="13.5" y2="8" stroke="white" stroke-opacity="0.5" stroke-width="1"/>
  <line x1="9.5" y1="10" x2="13.5" y2="16" stroke="white" stroke-opacity="0.5" stroke-width="1"/>
  <line x1="9.5" y1="10" x2="13.5" y2="24" stroke="white" stroke-opacity="0.3" stroke-width="1"/>
  <line x1="9.5" y1="16" x2="13.5" y2="8" stroke="white" stroke-opacity="0.5" stroke-width="1"/>
  <line x1="9.5" y1="16" x2="13.5" y2="16" stroke="white" stroke-opacity="0.5" stroke-width="1"/>
  <line x1="9.5" y1="16" x2="13.5" y2="24" stroke="white" stroke-opacity="0.5" stroke-width="1"/>
  <line x1="9.5" y1="22" x2="13.5" y2="8" stroke="white" stroke-opacity="0.3" stroke-width="1"/>
  <line x1="9.5" y1="22" x2="13.5" y2="16" stroke="white" stroke-opacity="0.5" stroke-width="1"/>
  <line x1="9.5" y1="22" x2="13.5" y2="24" stroke="white" stroke-opacity="0.5" stroke-width="1"/>
  <line x1="18.5" y1="8" x2="22.5" y2="16" stroke="white" stroke-opacity="0.5" stroke-width="1"/>
  <line x1="18.5" y1="16" x2="22.5" y2="16" stroke="white" stroke-opacity="0.7" stroke-width="1"/>
  <line x1="18.5" y1="24" x2="22.5" y2="16" stroke="white" stroke-opacity="0.5" stroke-width="1"/>
</svg>
